# xmcd
# 
# Track frame offsets:
#     187
#     21615
#     46155
#     92560
#     107275
#     134945
#     138282
#     167000
# 
# Disc length: 2273
# 
# Revision: 1
# Processed by: cddbd v1.5.2PL0 Copyright (c) Steve Scherf et al.
# Submitted via: fre:ac v1.0.31
# 
DISCID=6808df08
DTITLE=Popol Vuh - Hosianna Mantra
DYEAR=1972
DGENRE=Progressive Rock
TTITLE0=Ah!
TTITLE1=Kyrie
TTITLE2=Hosianna - Mantra
TTITLE3=Abschied
TTITLE4=Segnung
TTITLE5=Andacht
TTITLE6=Nicht Hoch im Himmel
TTITLE7=Andacht
EXTD=
EXTT0=
EXTT1=
EXTT2=
EXTT3=
EXTT4=
EXTT5=
EXTT6=
EXTT7=
PLAYORDER=
